HIERARCHY
ROOT joint_Root
{
	OFFSET 0.0 0.0 0.0
	CHANNELS 6 Xposition Yposition Zposition Zrotation Xrotation Yrotation 
	JOINT Hips
	{
		OFFSET -0.726466 93.3139 -2.00062
		CHANNELS 6 Xposition Yposition Zposition Zrotation Xrotation Yrotation 
		JOINT Spine
		{
			OFFSET 15.7357 0.0 0.0
			CHANNELS 6 Xposition Yposition Zposition Zrotation Xrotation Yrotation 
			JOINT Chest
			{
				OFFSET 8.98455 -0.406207 0.0
				CHANNELS 6 Xposition Yposition Zposition Zrotation Xrotation Yrotation 
				JOINT Neck
				{
					OFFSET 16.3773 0.0 0.0
					CHANNELS 6 Xposition Yposition Zposition Zrotation Xrotation Yrotation 
					JOINT Head
					{
						OFFSET 6.45672 0.0 0.0
						CHANNELS 6 Xposition Yposition Zposition Zrotation Xrotation Yrotation 
						End Site
						{
							OFFSET 0.0 0.0 0.0
						}
					}
				}
				JOINT Shoulder_L
				{
					OFFSET 12.9942 -0.242716 4.98039
					CHANNELS 6 Xposition Yposition Zposition Zrotation Xrotation Yrotation 
					JOINT UpperArm_L
					{
						OFFSET 5.34809 0.0 0.0
						CHANNELS 6 Xposition Yposition Zposition Zrotation Xrotation Yrotation 
						JOINT LowerArm_L
						{
							OFFSET 24.3286 1.87007e-05 0.0
							CHANNELS 6 Xposition Yposition Zposition Zrotation Xrotation Yrotation 
							JOINT Hand_L
							{
								OFFSET 22.2916 0.0 0.0
								CHANNELS 6 Xposition Yposition Zposition Zrotation Xrotation Yrotation 
								End Site
								{
									OFFSET 0.0 0.0 0.0
								}
							}
						}
					}
				}
				JOINT Shoulder_R
				{
					OFFSET 12.9945 -0.242716 -4.98039
					CHANNELS 6 Xposition Yposition Zposition Zrotation Xrotation Yrotation 
					JOINT UpperArm_R
					{
						OFFSET -5.34813 0.0 0.0
						CHANNELS 6 Xposition Yposition Zposition Zrotation Xrotation Yrotation 
						JOINT LowerArm_R
						{
							OFFSET -24.3289 0.000322201 0.0
							CHANNELS 6 Xposition Yposition Zposition Zrotation Xrotation Yrotation 
							JOINT Hand_R
							{
								OFFSET -22.2915 -0.000108084 0.0
								CHANNELS 6 Xposition Yposition Zposition Zrotation Xrotation Yrotation 
								End Site
								{
									OFFSET 0.0 0.0 0.0
								}
							}
						}
					}
				}
			}
		}
		JOINT UpperLeg_L
		{
			OFFSET -2.19248 -6.46944 0.0
			CHANNELS 6 Xposition Yposition Zposition Zrotation Xrotation Yrotation 
			JOINT LowerLeg_L
			{
				OFFSET 39.0811 0.0 -1.23785e-05
				CHANNELS 6 Xposition Yposition Zposition Zrotation Xrotation Yrotation 
				JOINT Foot_L
				{
					OFFSET 40.9854 0.0 -1.26872e-05
					CHANNELS 6 Xposition Yposition Zposition Zrotation Xrotation Yrotation 
					JOINT Toes_L
					{
						OFFSET 11.7543 0.0 0.0
						CHANNELS 6 Xposition Yposition Zposition Zrotation Xrotation Yrotation 
						End Site
						{
							OFFSET 0.0 0.0 0.0
						}
					}
				}
			}
		}
		JOINT UpperLeg_R
		{
			OFFSET -2.19251 6.46944 0.0
			CHANNELS 6 Xposition Yposition Zposition Zrotation Xrotation Yrotation 
			JOINT LowerLeg_R
			{
				OFFSET -39.0811 -0.00228153 -0.0401928
				CHANNELS 6 Xposition Yposition Zposition Zrotation Xrotation Yrotation 
				JOINT Foot_R
				{
					OFFSET -40.9854 0.0 0.0
					CHANNELS 6 Xposition Yposition Zposition Zrotation Xrotation Yrotation 
					JOINT Toes_R
					{
						OFFSET -11.7543 0.0 0.0
						CHANNELS 6 Xposition Yposition Zposition Zrotation Xrotation Yrotation 
						End Site
						{
							OFFSET 0.0 0.0 0.0
						}
					}
				}
			}
		}
	}
}
MOTION
Frames:	7
Frame Time:	0.0333333
0.000000 0.000000 0.000000 0.000000 0.000000 -0.000000 -2.562880 92.096500 -2.620980 88.418600 0.613040 3.116070 15.735700 0.000005 -0.000001 71.632000 85.174100 -67.352600 8.984550 -0.406207 -0.000000 1.533310 -3.272210 8.597180 16.377300 -0.000001 -0.000001 3.409020 0.140008 -2.697860 6.456720 -0.000001 -0.000000 -2.153350 -0.399423 19.813900 12.994200 -0.242716 4.980390 -83.437600 -11.819000 -60.679000 5.348090 -0.000007 -0.000001 -54.632000 -56.032900 -113.968000 24.328600 0.000019 0.000005 1.644040 0.911705 -60.996000 22.291600 -0.000001 0.000005 18.387600 5.582460 -10.344400 12.994500 -0.242716 -4.980390 89.648500 0.878639 -68.195600 -5.348130 -0.000001 -0.000004 -50.930000 68.610000 4.133840 -24.328900 0.000322 -0.000009 23.119900 0.843936 -88.024900 -22.291500 -0.000108 -0.000004 26.297000 5.678820 -23.050800 -2.192480 -6.469440 -0.000000 -168.315000 -15.422500 -3.137160 39.081100 -0.000007 -0.000012 -0.142022 0.408304 19.179500 40.985400 -0.000006 -0.000013 -7.590770 2.826630 -60.713500 11.754300 -0.000000 0.000003 -0.000088 -0.000921 -16.613000 -2.192510 6.469440 -0.000001 174.679000 20.642300 177.846000 -39.081100 -0.002282 -0.040193 -0.093408 0.259902 20.414000 -40.985400 0.000008 0.000006 -4.091320 2.112480 -63.322400 -11.754300 -0.000006 -0.000006 -0.004869 -0.060195 -19.022200
0.000000 0.000000 0.000000 0.000000 0.000000 -0.000000 -2.574500 92.103100 -2.587370 88.440600 0.516296 3.079890 15.735700 0.000005 -0.000001 70.644400 85.160500 -66.378600 8.984550 -0.406207 -0.000000 1.511110 -3.438660 8.571770 16.377300 -0.000001 -0.000001 3.344380 0.264047 -2.904040 6.456720 -0.000001 -0.000000 -2.275810 -0.266750 19.670300 12.994200 -0.242716 4.980390 -83.410000 -11.882800 -60.705100 5.348090 -0.000007 -0.000001 -55.460200 -55.185200 -116.075000 24.328600 0.000019 0.000005 1.979580 1.101270 -60.923000 22.291600 -0.000001 0.000005 18.340400 5.583330 -10.392100 12.994500 -0.242716 -4.980390 89.611000 0.973891 -68.224600 -5.348130 -0.000001 -0.000004 -50.452700 68.669300 3.678560 -24.328900 0.000322 -0.000009 23.069200 0.844077 -88.019800 -22.291500 -0.000108 -0.000004 26.243700 5.678770 -23.064500 -2.192480 -6.469440 -0.000000 -168.335000 -15.464300 -3.069940 39.081100 -0.000007 -0.000012 -0.140110 0.405097 19.079000 40.985400 -0.000006 -0.000013 -7.612490 2.753990 -60.703000 11.754300 -0.000000 0.000003 -0.000087 -0.000915 -16.612700 -2.192510 6.469440 -0.000001 174.693000 20.500600 177.836000 -39.081100 -0.002282 -0.040193 -0.090867 0.253602 20.375000 -40.985400 0.000008 0.000006 -4.092530 2.074690 -63.328900 -11.754300 -0.000006 -0.000006 -0.004584 -0.057385 -18.907700
0.000000 0.000000 0.000000 0.000000 0.000000 -0.000000 -2.607020 92.095700 -2.579010 88.427500 0.264580 3.016730 15.735700 0.000005 -0.000001 70.179200 85.141900 -65.900400 8.984550 -0.406207 -0.000000 1.523750 -3.525540 8.599430 16.377300 -0.000001 -0.000001 3.168130 0.402662 -3.062330 6.456720 -0.000001 -0.000000 -2.439930 -0.114898 19.600500 12.994200 -0.242716 4.980390 -83.398100 -11.879600 -60.654000 5.348090 -0.000007 -0.000001 -56.413500 -54.762300 -117.314000 24.328600 0.000019 0.000005 1.869380 1.074500 -60.118400 22.291600 -0.000001 0.000005 18.427900 5.583600 -10.406800 12.994500 -0.242716 -4.980390 89.584100 1.043940 -68.277800 -5.348130 -0.000001 -0.000004 -50.140600 68.649100 3.389640 -24.328900 0.000322 -0.000009 22.948100 0.833099 -88.034000 -22.291500 -0.000108 -0.000004 26.134200 5.678630 -23.101700 -2.192480 -6.469440 -0.000000 -168.298000 -15.543500 -3.066860 39.081100 -0.000007 -0.000012 -0.140087 0.404755 19.091100 40.985400 -0.000006 -0.000013 -7.669370 2.603100 -60.749200 11.754300 -0.000000 0.000003 -0.000096 -0.000990 -16.615600 -2.192510 6.469440 -0.000001 174.779000 20.284300 177.681000 -39.081100 -0.002282 -0.040193 -0.091060 0.252976 20.459700 -40.985400 0.000008 0.000006 -4.058550 2.092660 -63.358500 -11.754300 -0.000006 -0.000006 -0.004742 -0.058944 -18.971200
0.000000 0.000000 0.000000 0.000000 0.000000 -0.000000 -2.646950 92.105400 -2.524020 88.404400 0.127930 2.918610 15.735700 0.000005 -0.000001 69.634000 85.153100 -65.333900 8.984550 -0.406207 -0.000000 1.474860 -3.607530 8.641660 16.377300 -0.000001 -0.000001 3.042410 0.475309 -3.072130 6.456720 -0.000001 -0.000000 -2.626800 -0.066595 19.562000 12.994200 -0.242716 4.980390 -83.414600 -11.839700 -60.634700 5.348090 -0.000007 -0.000001 -56.947900 -54.980900 -117.327000 24.328600 0.000019 0.000005 1.195430 0.726801 -58.700600 22.291600 -0.000001 0.000005 18.551500 5.585770 -10.525900 12.994500 -0.242716 -4.980390 89.577200 1.058470 -68.227100 -5.348130 -0.000001 -0.000004 -50.323100 68.627400 3.596850 -24.328900 0.000322 -0.000009 23.089600 0.822601 -88.072000 -22.291500 -0.000108 -0.000004 26.227100 5.679080 -22.968400 -2.192480 -6.469440 -0.000000 -168.264000 -15.570800 -3.032070 39.081100 -0.000007 -0.000012 -0.138149 0.402234 18.955300 40.985400 -0.000006 -0.000013 -7.727140 2.481810 -60.728900 11.754300 -0.000000 0.000003 -0.000083 -0.000874 -16.611200 -2.192510 6.469440 -0.000001 174.845000 20.263700 177.652000 -39.081100 -0.002282 -0.040193 -0.092915 0.259414 20.353600 -40.985400 0.000008 0.000006 -4.024660 2.213150 -63.333500 -11.754300 -0.000006 -0.000006 -0.004679 -0.058329 -18.946200
0.000000 0.000000 0.000000 0.000000 0.000000 -0.000000 -2.711470 92.103300 -2.488100 88.355600 -0.178394 2.766160 15.735700 0.000005 -0.000001 69.644400 85.202900 -65.320500 8.984550 -0.406207 -0.000000 1.381600 -3.576130 8.685980 16.377300 -0.000001 -0.000001 2.968620 0.482392 -2.965900 6.456720 -0.000001 -0.000000 -2.703060 -0.057887 19.605700 12.994200 -0.242716 4.980390 -83.422900 -11.794100 -60.572400 5.348090 -0.000007 -0.000001 -57.065600 -55.666200 -116.145000 24.328600 0.000019 0.000005 0.761041 0.496951 -56.849700 22.291600 -0.000001 0.000005 18.508500 5.584890 -10.477700 12.994500 -0.242716 -4.980390 89.569200 1.077590 -68.206200 -5.348130 -0.000001 -0.000004 -50.615400 68.564500 3.936770 -24.328900 0.000322 -0.000009 22.970200 0.809745 -88.091100 -22.291500 -0.000108 -0.000004 26.157300 5.678920 -23.021000 -2.192480 -6.469440 -0.000000 -168.199000 -15.587200 -3.042380 39.081100 -0.000007 -0.000012 -0.137166 0.400662 18.898600 40.985400 -0.000006 -0.000013 -7.831000 2.212390 -60.786100 11.754300 -0.000000 0.000003 -0.000082 -0.000869 -16.611000 -2.192510 6.469440 -0.000001 175.005000 20.146000 177.457000 -39.081100 -0.002282 -0.040193 -0.092208 0.257249 20.372500 -40.985400 0.000008 0.000006 -3.955010 2.324630 -63.345900 -11.754300 -0.000006 -0.000006 -0.004505 -0.056591 -18.875400
0.000000 0.000000 0.000000 0.000000 0.000000 -0.000000 -2.790040 92.113600 -2.420680 88.314300 -0.334365 2.671480 15.735700 0.000005 -0.000001 69.428500 85.240000 -65.068100 8.984550 -0.406207 -0.000000 1.301340 -3.589090 8.756580 16.377300 -0.000001 -0.000001 2.976570 0.401757 -2.872720 6.456720 -0.000001 -0.000000 -2.657580 -0.163102 19.686600 12.994200 -0.242716 4.980390 -83.460600 -11.693000 -60.506800 5.348090 -0.000007 -0.000001 -56.507000 -56.651700 -113.680000 24.328600 0.000019 0.000005 0.262370 0.186056 -54.635200 22.291600 -0.000001 0.000005 18.449100 5.582140 -10.327200 12.994500 -0.242716 -4.980390 89.574200 1.060030 -68.114500 -5.348130 -0.000001 -0.000004 -50.731700 68.488900 4.070530 -24.328900 0.000322 -0.000009 22.910800 0.803748 -88.099800 -22.291500 -0.000108 -0.000004 26.045200 5.678780 -23.062200 -2.192480 -6.469440 -0.000000 -168.111000 -15.546300 -2.948270 39.081100 -0.000007 -0.000012 -0.136485 0.403447 18.690700 40.985400 -0.000006 -0.000013 -7.941370 2.018110 -60.748200 11.754300 -0.000000 0.000003 -0.000085 -0.000891 -16.611900 -2.192510 6.469440 -0.000001 175.126000 20.118100 177.435000 -39.081100 -0.002282 -0.040193 -0.090864 0.255025 20.270100 -40.985400 0.000008 0.000006 -3.890440 2.428170 -63.339100 -11.754300 -0.000006 -0.000006 -0.004641 -0.057946 -18.930600
0.000000 0.000000 0.000000 0.000000 0.000000 -0.000000 -2.885890 92.103100 -2.366960 88.267900 -0.492446 2.653530 15.735700 0.000005 -0.000001 69.682900 85.253100 -65.296300 8.984550 -0.406207 -0.000000 1.290600 -3.542270 8.808240 16.377300 -0.000001 -0.000001 2.953890 0.258903 -2.776950 6.456720 -0.000001 -0.000000 -2.581490 -0.301011 19.808700 12.994200 -0.242716 4.980390 -83.489500 -11.636500 -60.499200 5.348090 -0.000007 -0.000001 -55.167500 -57.958900 -109.803000 24.328600 0.000019 0.000005 0.067853 0.052485 -52.262300 22.291600 -0.000001 0.000005 18.202200 5.578900 -10.153200 12.994500 -0.242716 -4.980390 89.567900 1.069550 -68.001900 -5.348130 -0.000001 -0.000004 -50.730500 68.437900 4.053610 -24.328900 0.000322 -0.000009 22.959200 0.791565 -88.133000 -22.291500 -0.000108 -0.000004 25.998200 5.678830 -23.046400 -2.192480 -6.469440 -0.000000 -167.982000 -15.596200 -2.873440 39.081100 -0.000007 -0.000012 -0.136535 0.404181 18.665500 40.985400 -0.000006 -0.000013 -8.035510 1.936350 -60.775200 11.754300 -0.000000 0.000003 -0.000089 -0.000928 -16.613200 -2.192510 6.469440 -0.000001 175.262000 19.934800 177.397000 -39.081100 -0.002282 -0.040193 -0.090424 0.252845 20.342800 -40.985400 0.000008 0.000006 -3.832590 2.380360 -63.433300 -11.754300 -0.000006 -0.000006 -0.004688 -0.058411 -18.949500
